<?xml version="1.0" encoding="iso-8859-1"?>
<!-- Generator: Adobe Illustrator 19.0.0, SVG Export Plug-In . SVG Version: 6.00 Build 0)  -->
<svg version="1.1" id="Capa_1" xmlns="http://www.w3.org/2000/svg" xmlns:xlink="http://www.w3.org/1999/xlink" x="0px" y="0px"
	 viewBox="0 0 368 368" style="enable-background:new 0 0 368 368;" xml:space="preserve">
<circle style="fill:#CCE4FF;" cx="184" cy="184" r="176"/>
<g>
	<path style="fill:#007AFF;" d="M184,0C82.544,0,0,82.544,0,184s82.544,184,184,184s184-82.544,184-184S285.456,0,184,0z M184,352
		c-92.64,0-168-75.36-168-168S91.36,16,184,16s168,75.36,168,168S276.64,352,184,352z"/>
	<path style="fill:#007AFF;" d="M205.656,114.344c-3.128-3.128-8.184-3.128-11.312,0s-3.128,8.184,0,11.312L252.688,184
		l-58.344,58.344c-3.128,3.128-3.128,8.184,0,11.312c1.56,1.56,3.608,2.344,5.656,2.344s4.096-0.784,5.656-2.344l64-64
		c3.128-3.128,3.128-8.184,0-11.312L205.656,114.344z"/>
	<path style="fill:#007AFF;" d="M189.656,178.344l-64-64c-3.128-3.128-8.184-3.128-11.312,0s-3.128,8.184,0,11.312L172.688,184
		l-58.344,58.344c-3.128,3.128-3.128,8.184,0,11.312c1.56,1.56,3.608,2.344,5.656,2.344s4.096-0.784,5.656-2.344l64-64
		C192.784,186.528,192.784,181.472,189.656,178.344z"/>
</g>
<g>
</g>
<g>
</g>
<g>
</g>
<g>
</g>
<g>
</g>
<g>
</g>
<g>
</g>
<g>
</g>
<g>
</g>
<g>
</g>
<g>
</g>
<g>
</g>
<g>
</g>
<g>
</g>
<g>
</g>
</svg>
